<svg id="Layer_1" data-name="Layer 1" xmlns="http://www.w3.org/2000/svg" viewBox="0 0 512 512"><defs><style>.cls-1{fill:#eadbc7;}.cls-2{fill:#495875;}.cls-3{fill:#2686ef;}</style></defs><title>gesture-15-filled</title><path class="cls-1" d="M200.65,325.19v-173A27.68,27.68,0,0,1,231,124.67c14.39,1.37,25,14.28,25,28.74v95.68a27.68,27.68,0,0,1,30.39-27.55c14.39,1.37,25,14.28,25,28.74v26.49a27.68,27.68,0,0,1,30.39-27.55c14.39,1.37,25,14.28,25,28.74v19.57A27.68,27.68,0,0,1,397.1,270c14.39,1.37,25,14.28,25,28.74v54.82a114.47,114.47,0,0,1-7,39.38l-4.41,12a153.4,153.4,0,0,0-9.36,52.78v40.46H200.65V476.91c0-21.84-6.92-34.1-24.11-58.22,0,0-72.75-121.18,24.11-121.18"/><path class="cls-2" d="M232.35,110.89a41.52,41.52,0,0,0-45.54,41.32V284.5c-20.47,2.58-35,11.25-43.26,25.85-22.74,40.17,16.56,107.88,21.11,115.47.19.31.39.62.6.91,16.69,23.41,21.54,32.83,21.54,50.19v21.25A13.84,13.84,0,0,0,200.65,512H401.3a13.84,13.84,0,0,0,13.84-13.84V457.71a139.06,139.06,0,0,1,8.52-48l4.41-12a127.92,127.92,0,0,0,7.83-44.14V298.7c0-21.83-16.47-40.5-37.49-42.51a41.85,41.85,0,0,0-21.77,3.8c-6.08-13.35-18.69-23.14-33.58-24.56a41.65,41.65,0,0,0-19.56,2.84c-4.72-16.32-18.76-28.89-35.79-30.52a41.71,41.71,0,0,0-17.86,2.2V153.41C269.84,131.57,253.37,112.9,232.35,110.89Zm42,127.95a13.84,13.84,0,0,1,10.7-3.53c7,.67,12.44,7.24,12.44,15v40.32a13.84,13.84,0,0,0,27.68,0V276.76A13.85,13.85,0,0,1,340.43,263c7,.67,12.44,7.24,12.44,15v33.41a13.84,13.84,0,1,0,27.68,0V297.51a13.85,13.85,0,0,1,15.24-13.77c7,.67,12.44,7.24,12.44,15v54.82a100.35,100.35,0,0,1-6.14,34.62l-4.41,12a166.65,166.65,0,0,0-10.21,57.54v26.62h-173v-7.41c0-25.83-8.44-40.64-26.36-65.79-13.94-23.48-31.64-67.49-20.48-87.16,3.32-5.85,9.74-9.69,19.16-11.46v12.69a13.84,13.84,0,0,0,27.68,0v-173a13.85,13.85,0,0,1,15.24-13.77c7,.67,12.44,7.24,12.44,15V262.92a13.84,13.84,0,0,0,27.68,0V249.08A13.68,13.68,0,0,1,274.37,238.84Z"/><path class="cls-3" d="M228.32,83a13.84,13.84,0,0,0,13.84-13.84V13.84a13.84,13.84,0,1,0-27.68,0V69.19A13.84,13.84,0,0,0,228.32,83Z"/><path class="cls-3" d="M89.95,152.22H145.3a13.84,13.84,0,1,0,0-27.68H89.95a13.84,13.84,0,0,0,0,27.68Z"/><path class="cls-3" d="M297.51,138.38a13.84,13.84,0,0,0,13.84,13.84H366.7a13.84,13.84,0,1,0,0-27.68H311.35A13.84,13.84,0,0,0,297.51,138.38Z"/><path class="cls-3" d="M163.19,99.73a13.84,13.84,0,0,0,19.57-19.57L141.24,38.65a13.84,13.84,0,1,0-19.57,19.57Z"/><path class="cls-3" d="M283.68,103.78a13.79,13.79,0,0,0,9.78-4.05L335,58.22a13.84,13.84,0,0,0-19.57-19.57L273.89,80.16a13.84,13.84,0,0,0,9.78,23.62Z"/></svg>